<svg xmlns="http://www.w3.org/2000/svg" viewBox="0 0 256 256"><rect width="256" height="256" fill="none"/><path d="M112,216V104a8,8,0,0,1,8-8h96a8,8,0,0,1,8,8V216a8,8,0,0,1-8,8H120A8,8,0,0,1,112,216Z" fill="#1A2B4C"/><path d="M112,224H40a8,8,0,0,1-8-8V40a8,8,0,0,1,8-8h56a8,8,0,0,1,8,8V224" fill="none" stroke="#1A2B4C" stroke-linecap="round" stroke-linejoin="round" stroke-width="16"/><line x1="112" y1="176" x2="224" y2="176" fill="none" stroke="#1A2B4C" stroke-linecap="round" stroke-linejoin="round" stroke-width="16"/><line x1="112" y1="128" x2="224" y2="128" fill="none" stroke="#1A2B4C" stroke-linecap="round" stroke-linejoin="round" stroke-width="16"/><line x1="64" y1="80" x2="80" y2="80" fill="none" stroke="#1A2B4C" stroke-linecap="round" stroke-linejoin="round" stroke-width="16"/><line x1="64" y1="128" x2="80" y2="128" fill="none" stroke="#1A2B4C" stroke-linecap="round" stroke-linejoin="round" stroke-width="16"/><line x1="64" y1="176" x2="80" y2="176" fill="none" stroke="#1A2B4C" stroke-linecap="round" stroke-linejoin="round" stroke-width="16"/></svg>
